<svg xmlns="http://www.w3.org/2000/svg" viewBox="0 0 24 24">
  <path d="M12 1.27a11 11 0 00-3.48 21.46c.55.09.73-.24.73-.53v-1.85c-3.03.66-3.67-1.45-3.67-1.45-.5-1.26-1.21-1.6-1.21-1.6-.98-.67.08-.66.08-.66 1.09.08 1.67 1.12 1.67 1.12.96 1.65 2.53 1.17 3.15.89.1-.7.38-1.17.69-1.44-2.42-.28-4.96-1.21-4.96-5.38 0-1.19.42-2.16 1.12-2.92-.11-.28-.49-1.4.11-2.91 0 0 .91-.29 3 1.12a10.38 10.38 0 015.5 0c2.08-1.41 3-.12 3-.12.6 1.51.22 2.63.11 2.91.7.76 1.12 1.73 1.12 2.92 0 4.18-2.55 5.1-4.98 5.37.39.34.74 1.01.74 2.03v3.01c0 .29.19.63.74.53A11 11 0 0012 1.27" fill="#24292E"/>
</svg> 